<?xml version="1.0" standalone="no"?>
<!DOCTYPE svg PUBLIC "-//W3C//DTD SVG 20010904//EN"
 "http://www.w3.org/TR/2001/REC-SVG-20010904/DTD/svg10.dtd">
<svg version="1.0" xmlns="http://www.w3.org/2000/svg"
 width="400.000000pt" height="400.000000pt" viewBox="0 0 400.000000 400.000000"
 preserveAspectRatio="xMidYMid meet">
<metadata>
Created by potrace 1.14, written by Peter Selinger 2001-2017
</metadata>
<g transform="translate(0.000000,400.000000) scale(0.100000,-0.100000)"
fill="#000000" stroke="none">
<path d="M1042 3828 c-6 -6 -12 -18 -12 -26 0 -8 60 -114 133 -236 72 -122
134 -225 136 -230 2 -6 42 -73 89 -150 47 -78 90 -150 96 -161 61 -109 132
-215 148 -220 21 -7 48 10 48 31 0 8 -37 76 -82 152 -46 75 -88 146 -94 157
-5 11 -61 106 -124 210 -62 105 -152 255 -200 335 -87 145 -109 167 -138 138z"/>
<path d="M2928 3818 c-9 -7 -26 -31 -38 -53 -13 -22 -78 -137 -145 -255 -68
-118 -132 -231 -143 -250 -10 -19 -28 -51 -39 -70 -168 -292 -194 -342 -191
-362 2 -18 9 -23 33 -23 28 0 35 10 136 185 314 551 435 766 441 787 4 15 1
29 -9 38 -18 18 -25 19 -45 3z"/>
<path d="M1303 3813 c-7 -2 -13 -15 -13 -29 0 -19 115 -290 254 -599 13 -27
51 -114 86 -192 34 -78 69 -144 77 -147 19 -8 53 11 53 30 0 14 -27 81 -74
186 -41 92 -253 571 -269 608 -59 140 -74 160 -114 143z"/>
<path d="M2652 3787 c-6 -6 -20 -37 -32 -67 -11 -30 -27 -68 -35 -85 -7 -16
-38 -93 -68 -170 -31 -77 -63 -153 -71 -170 -9 -16 -16 -34 -16 -38 0 -5 -6
-23 -14 -40 -45 -98 -136 -335 -136 -353 0 -27 17 -43 41 -37 27 7 -2 -57 261
588 154 379 144 351 129 369 -16 19 -45 21 -59 3z"/>
<path d="M772 3758 c-7 -7 -12 -18 -12 -26 0 -12 40 -70 75 -108 5 -6 24 -28
40 -49 17 -21 99 -124 184 -229 85 -105 191 -236 235 -291 44 -55 83 -102 86
-105 3 -3 30 -36 60 -75 83 -106 102 -125 122 -125 10 0 23 11 30 25 10 22 3
34 -88 147 -54 68 -101 125 -104 128 -3 3 -53 64 -110 135 -98 123 -210 262
-237 295 -7 8 -47 58 -89 110 -131 163 -147 180 -164 180 -9 0 -21 -5 -28 -12z"/>
<path d="M2989 3498 c-112 -150 -206 -275 -209 -278 -3 -3 -32 -41 -65 -85
-33 -44 -65 -87 -72 -95 -6 -8 -53 -70 -104 -137 -90 -121 -91 -123 -75 -148
19 -30 42 -24 78 20 49 60 695 921 706 941 14 26 -2 54 -32 54 -18 0 -64 -56
-227 -272z"/>
<path d="M2408 3693 c-9 -3 -21 -19 -26 -36 -13 -43 -32 -117 -37 -142 -2 -11
-4 -20 -5 -20 -1 0 -3 -7 -5 -15 -2 -8 -29 -114 -60 -235 -95 -364 -95 -364
-78 -381 41 -41 67 -3 98 146 2 8 18 69 35 135 81 308 130 501 130 517 0 20
-27 36 -52 31z"/>
<path d="M1572 3653 c-7 -16 -9 -38 -2 -45 1 -2 3 -10 5 -19 1 -9 15 -59 30
-110 15 -52 29 -101 31 -109 15 -63 58 -216 106 -380 31 -109 35 -115 61 -118
49 -6 49 24 -4 207 -26 91 -73 258 -104 371 -32 113 -63 208 -69 212 -19 13
-45 9 -54 -9z"/>
<path d="M533 3638 c-6 -7 -10 -21 -10 -31 0 -10 148 -163 341 -352 600 -587
578 -566 606 -563 18 2 26 10 28 28 3 25 -54 82 -618 630 -37 36 -121 118
-187 183 -66 64 -127 117 -135 117 -9 0 -20 -6 -25 -12z"/>
<path d="M2967 3176 c-286 -284 -437 -442 -437 -455 0 -25 29 -41 55 -30 11 4
213 201 448 437 358 358 428 433 425 453 -2 17 -10 25 -29 27 -22 3 -89 -60
-462 -432z"/>
<path d="M2203 3528 c-6 -7 -14 -31 -18 -53 -5 -22 -9 -42 -10 -45 0 -3 -4
-26 -8 -51 -4 -25 -10 -59 -13 -75 -2 -16 -9 -54 -14 -84 -5 -30 -12 -68 -15
-85 -2 -16 -13 -75 -23 -130 -10 -55 -16 -108 -14 -117 5 -25 41 -33 60 -14
13 13 67 280 97 486 3 19 8 44 10 56 14 65 15 96 4 110 -14 17 -43 18 -56 2z"/>
<path d="M1791 3469 c-6 -19 5 -115 33 -274 2 -16 8 -55 11 -85 4 -30 8 -57
10 -60 1 -3 6 -32 9 -65 9 -79 14 -93 35 -105 12 -6 24 -5 38 5 19 13 19 18 7
102 -41 281 -73 483 -79 492 -12 20 -55 13 -64 -10z"/>
<path d="M3605 3468 c-11 -6 -60 -45 -110 -85 -49 -41 -97 -80 -105 -86 -8 -7
-69 -56 -135 -109 -373 -300 -472 -380 -490 -396 -11 -10 -50 -42 -87 -72 -38
-29 -68 -59 -68 -66 0 -27 13 -44 34 -44 18 0 147 98 351 265 22 19 130 106
240 195 110 88 216 174 235 190 19 16 62 51 95 77 77 61 80 64 93 90 9 16 9
23 -1 30 -24 20 -33 21 -52 11z"/>
<path d="M340 3440 c-34 -21 7 -61 275 -262 149 -111 275 -206 280 -211 96
-77 461 -342 473 -342 9 0 22 11 29 25 16 31 32 16 -307 270 -140 105 -262
196 -270 203 -28 23 -372 282 -404 304 -34 24 -53 27 -76 13z"/>
<path d="M1987 3415 c-12 -12 -14 -56 -13 -261 2 -226 4 -247 20 -260 21 -15
56 -3 56 19 5 225 -1 491 -11 503 -15 18 -34 18 -52 -1z"/>
<path d="M226 3198 c-21 -30 -8 -49 61 -86 32 -18 78 -44 103 -58 64 -37 328
-188 370 -211 64 -36 124 -70 320 -182 107 -61 201 -110 209 -109 8 2 19 11
25 21 17 27 -2 47 -105 106 -52 29 -110 62 -129 73 -19 11 -71 41 -115 66 -44
24 -210 119 -369 209 -159 91 -304 171 -322 179 -31 13 -34 12 -48 -8z"/>
<path d="M3635 3159 c-50 -28 -97 -57 -106 -65 -8 -8 -18 -14 -22 -14 -6 0
-229 -130 -342 -199 -64 -39 -196 -118 -352 -210 -68 -39 -123 -78 -123 -86 0
-28 13 -45 35 -45 13 0 124 60 247 133 230 138 372 222 613 362 168 98 201
126 185 155 -16 30 -37 25 -135 -31z"/>
<path d="M3715 2935 c-27 -13 -53 -24 -57 -25 -4 0 -31 -11 -60 -24 -29 -13
-147 -65 -263 -115 -115 -51 -219 -96 -230 -101 -11 -6 -87 -39 -170 -74 -82
-36 -156 -73 -163 -84 -15 -23 -7 -49 16 -54 16 -4 110 29 150 52 9 5 199 88
422 185 223 96 416 182 430 189 29 17 37 41 20 61 -17 20 -36 18 -95 -10z"/>
<path d="M213 2940 c-30 -12 -29 -45 0 -65 13 -8 52 -27 88 -41 35 -14 78 -32
94 -39 17 -8 73 -32 125 -53 52 -22 167 -70 254 -107 88 -37 182 -76 210 -86
27 -11 68 -28 90 -38 111 -51 114 -51 137 -32 32 26 18 55 -39 76 -26 10 -69
28 -97 40 -27 12 -88 38 -135 58 -47 19 -173 72 -280 117 -107 45 -233 97
-280 117 -47 19 -98 41 -114 49 -16 8 -30 14 -30 13 -1 0 -11 -4 -23 -9z"/>
<path d="M1988 2835 c-2 -1 -23 -5 -48 -9 -69 -8 -97 -15 -164 -37 -149 -51
-258 -120 -414 -263 -114 -106 -233 -192 -320 -234 -78 -37 -92 -53 -71 -78
15 -19 62 -12 126 17 47 21 196 121 228 153 203 199 319 278 481 329 99 31
147 39 244 39 183 -1 337 -66 486 -209 204 -194 290 -255 426 -303 48 -17 55
-17 71 -3 9 9 17 21 17 28 0 14 -32 45 -48 45 -24 0 -143 62 -201 105 -34 25
-92 74 -129 109 -125 118 -147 137 -207 180 -58 42 -184 100 -237 110 -67 12
-234 27 -240 21z"/>
<path d="M210 2665 c-18 -22 -2 -53 33 -63 44 -13 85 -24 292 -81 99 -27 262
-72 363 -100 100 -28 189 -51 197 -51 15 0 32 26 31 49 -1 21 -15 26 -231 85
-110 30 -218 60 -240 66 -56 15 -187 51 -205 56 -8 2 -53 15 -99 29 -98 29
-124 31 -141 10z"/>
<path d="M1956 2668 c-121 -14 -268 -78 -345 -148 -24 -22 -45 -40 -47 -40 -4
0 1 5 -159 -149 -154 -148 -235 -198 -389 -240 -65 -18 -88 -40 -70 -68 6 -10
26 -21 45 -25 51 -10 216 -92 239 -118 3 -3 21 -17 40 -31 40 -30 147 -134
237 -232 35 -37 67 -67 73 -67 6 0 23 -11 38 -25 15 -14 46 -37 70 -51 44 -26
172 -77 172 -69 0 2 12 0 28 -6 46 -18 208 -13 294 10 95 25 159 57 235 118
68 55 108 98 149 163 54 84 79 112 144 159 96 70 178 105 370 159 19 6 25 14
25 37 0 27 -4 30 -90 60 -203 71 -352 166 -445 283 -123 157 -302 264 -465
278 -33 3 -64 7 -70 8 -5 1 -41 -2 -79 -6z m267 -111 c269 -99 421 -400 341
-676 -58 -201 -232 -363 -434 -405 -290 -59 -584 122 -655 404 -41 159 -3 362
88 473 12 15 33 41 47 57 39 49 159 126 230 148 36 12 72 23 80 26 8 3 65 4
125 2 86 -3 125 -9 178 -29z m-822 -365 c-11 -20 -25 -119 -25 -172 1 -44 14
-152 20 -162 13 -20 -15 -5 -42 23 -30 32 -131 102 -196 137 l-38 19 83 41
c45 22 107 61 137 85 60 49 76 57 61 29z m1451 -107 l68 -33 -129 -64 -128
-64 0 90 c1 50 -3 112 -7 139 l-8 47 68 -41 c38 -23 99 -56 136 -74z"/>
<path d="M1885 2362 c-154 -54 -245 -175 -250 -330 -1 -42 1 -84 5 -92 4 -8
17 -37 29 -63 82 -184 321 -267 508 -176 269 130 266 511 -5 641 -84 40 -207
48 -287 20z m185 -68 c78 -13 167 -82 205 -160 30 -60 27 -175 -5 -237 -50
-98 -142 -152 -260 -151 -172 1 -292 116 -294 281 0 45 4 77 12 85 7 7 12 20
12 30 0 22 88 110 132 131 19 9 49 19 68 22 19 3 36 8 38 10 4 3 18 2 92 -11z"/>
<path d="M3709 2676 c-3 -3 -20 -8 -38 -11 -19 -3 -37 -8 -41 -10 -3 -2 -156
-45 -340 -95 -437 -119 -400 -106 -400 -141 0 -40 28 -44 115 -19 39 12 77 23
85 25 45 10 297 77 310 82 8 3 20 7 25 8 21 5 252 67 302 81 52 15 68 33 58
65 -5 14 -16 19 -39 19 -18 0 -35 -2 -37 -4z"/>
<path d="M270 2422 c-16 -13 -21 -24 -16 -39 8 -26 1 -24 291 -68 94 -15 181
-28 195 -31 14 -2 55 -9 92 -14 37 -5 71 -11 75 -12 20 -4 43 16 43 38 0 29
-21 41 -85 48 -27 4 -57 8 -65 10 -8 3 -37 7 -65 11 -27 3 -88 12 -135 20 -47
8 -103 17 -125 20 -22 3 -47 7 -55 10 -8 2 -37 6 -64 10 -27 3 -53 8 -57 10
-4 3 -17 -3 -29 -13z"/>
<path d="M3656 2433 c-2 -2 -23 -5 -47 -8 -24 -2 -55 -6 -69 -9 -14 -3 -74
-12 -135 -21 -60 -9 -132 -20 -160 -25 -27 -5 -72 -12 -100 -15 -70 -8 -83
-13 -90 -36 -12 -35 13 -51 69 -45 28 3 60 7 71 9 11 3 45 8 75 12 30 4 62 9
70 10 22 4 101 16 130 20 186 25 254 37 268 48 21 16 15 56 -10 62 -23 5 -66
4 -72 -2z"/>
<path d="M335 2193 c-8 -8 -15 -20 -15 -27 0 -30 31 -37 182 -42 84 -3 194 -6
243 -8 50 -2 98 1 108 6 19 10 23 53 6 63 -14 9 -91 14 -317 19 -161 4 -195 2
-207 -11z"/>
<path d="M3123 2202 c-38 -5 -42 -70 -4 -73 75 -6 529 5 543 12 10 5 18 18 18
28 0 40 -18 43 -282 39 -139 -2 -263 -4 -275 -6z"/>
<path d="M3140 2041 c-13 -26 2 -60 28 -62 9 -1 33 -2 52 -4 19 -1 88 -5 152
-9 64 -4 129 -9 143 -11 38 -4 69 28 55 55 -6 11 -18 20 -28 21 -9 0 -24 2
-32 4 -14 2 -85 8 -272 21 -81 5 -87 4 -98 -15z"/>
<path d="M758 2035 c-2 -2 -30 -5 -63 -9 -33 -3 -71 -8 -85 -10 -14 -3 -49 -7
-79 -10 -60 -7 -81 -19 -81 -46 0 -27 24 -41 61 -36 19 2 59 7 89 10 178 20
221 28 230 46 10 18 4 48 -9 52 -12 3 -61 5 -63 3z"/>
<path d="M3086 1885 c-36 -36 -6 -67 79 -81 28 -4 55 -8 60 -10 59 -14 168
-34 186 -34 38 0 35 69 -3 76 -32 6 -265 55 -284 60 -13 3 -28 -1 -38 -11z"/>
<path d="M810 1880 c-19 -5 -48 -11 -65 -14 -173 -30 -185 -34 -185 -67 0 -35
34 -42 118 -24 42 9 95 18 117 21 59 8 105 24 106 37 6 53 -16 64 -91 47z"/>
<path d="M2945 1840 c-75 -39 -143 -95 -220 -179 -196 -215 -329 -314 -465
-346 -8 -2 -44 -11 -80 -20 -75 -20 -231 -26 -299 -13 -165 33 -278 96 -461
258 -151 133 -257 207 -348 243 -60 24 -80 22 -88 -8 -7 -30 7 -51 41 -59 58
-15 223 -126 329 -223 193 -175 346 -261 516 -290 231 -38 545 48 710 197 14
12 34 30 45 39 11 9 56 56 100 106 96 108 132 142 209 197 111 81 111 80 89
106 l-18 23 -60 -31z"/>
<path d="M3026 1764 c-36 -35 -11 -55 139 -112 96 -37 135 -47 148 -40 22 11
20 57 -3 69 -23 12 -252 99 -261 99 -4 0 -15 -7 -23 -16z"/>
<path d="M875 1735 c-27 -13 -54 -24 -58 -25 -4 0 -37 -14 -73 -30 -59 -28
-65 -34 -62 -58 4 -38 43 -40 120 -4 35 15 85 37 111 48 55 22 73 57 42 81
-23 16 -20 17 -80 -12z"/>
<path d="M2900 1675 c-23 -27 1 -51 135 -133 115 -71 137 -82 155 -72 11 6 20
21 20 34 0 19 -19 35 -96 82 -52 33 -104 64 -115 70 -12 7 -26 17 -32 23 -16
16 -52 14 -67 -4z"/>
<path d="M951 1591 c-140 -90 -155 -103 -147 -128 14 -44 40 -37 161 42 119
78 136 96 118 124 -18 28 -37 23 -132 -38z"/>
<path d="M2800 1571 c-5 -11 -10 -22 -10 -25 0 -9 41 -45 124 -110 165 -128
163 -127 190 -101 9 10 12 23 8 34 -10 26 -259 221 -283 221 -10 0 -23 -9 -29
-19z"/>
<path d="M1030 1456 c-68 -52 -127 -104 -131 -114 -5 -14 -1 -26 13 -39 11
-10 21 -18 22 -18 2 0 112 82 200 148 67 50 77 62 74 85 -6 53 -42 40 -178
-62z"/>
<path d="M2743 1489 c-15 -5 -23 -17 -23 -32 0 -13 10 -32 23 -43 12 -11 63
-64 114 -117 68 -71 99 -97 117 -97 27 0 43 30 29 54 -8 14 -181 193 -219 227
-14 12 -25 14 -41 8z"/>
<path d="M1267 1449 c-10 -6 -55 -45 -100 -87 -165 -157 -159 -148 -131 -176
30 -31 34 -28 236 165 62 59 67 69 42 93 -18 19 -23 19 -47 5z"/>
<path d="M2625 1383 c-9 -9 -15 -23 -12 -32 4 -18 202 -287 217 -296 17 -10
48 5 53 25 4 14 -20 55 -82 139 -140 189 -146 195 -176 164z"/>
<path d="M1352 1352 c-28 -25 -192 -268 -192 -285 0 -22 26 -39 49 -32 11 3
42 38 69 78 27 40 70 102 96 140 49 69 52 88 17 106 -15 8 -24 7 -39 -7z"/>
<path d="M1379 1138 c-113 -194 -111 -190 -93 -216 26 -37 52 -13 127 114 125
213 129 221 117 244 -6 11 -21 20 -34 20 -19 0 -38 -27 -117 -162z"/>
<path d="M2510 1269 c-14 -24 -19 -13 102 -226 38 -66 75 -124 84 -127 8 -3
24 4 35 15 l20 20 -49 92 c-131 242 -163 280 -192 226z"/>
<path d="M1590 1218 c-11 -12 -20 -26 -20 -30 0 -5 -36 -97 -81 -205 -67 -165
-79 -201 -70 -220 11 -25 43 -31 58 -10 6 6 38 82 72 167 34 85 71 174 82 198
32 70 34 98 11 111 -27 15 -28 14 -52 -11z"/>
<path d="M2408 1229 c-10 -5 -18 -18 -18 -28 0 -21 155 -410 169 -424 17 -17
61 1 61 25 0 27 -148 397 -168 421 -17 20 -21 20 -44 6z"/>
<path d="M2262 1188 c-7 -7 -12 -18 -12 -25 0 -8 25 -100 56 -206 30 -106 57
-199 59 -208 2 -9 9 -35 16 -58 11 -39 15 -42 43 -39 20 2 32 9 34 21 4 21
-126 496 -140 515 -13 15 -40 16 -56 0z"/>
<path d="M1717 1176 c-12 -12 -36 -89 -52 -166 -2 -8 -24 -96 -49 -196 -25
-99 -46 -188 -46 -197 0 -27 41 -39 61 -19 10 10 45 133 85 289 57 228 66 274
55 287 -17 20 -35 20 -54 2z"/>
<path d="M2131 1159 c-22 -9 -23 -13 -16 -65 4 -31 8 -66 10 -78 4 -18 20
-142 30 -216 1 -14 8 -61 14 -105 6 -44 13 -102 17 -130 15 -123 23 -145 47
-145 51 1 51 1 32 160 -7 62 -21 157 -31 215 -2 17 -7 50 -9 75 -2 25 -6 54
-8 65 -3 11 -8 52 -13 90 -4 39 -8 73 -10 78 -1 4 -2 16 -3 27 -1 26 -30 40
-60 29z"/>
<path d="M1852 1148 c-5 -7 -13 -37 -17 -67 -4 -30 -8 -61 -10 -70 -1 -9 -6
-41 -10 -71 -11 -90 -22 -169 -32 -225 -6 -36 -8 -51 -23 -187 -10 -87 -10
-110 0 -123 7 -8 18 -15 24 -15 34 1 40 23 70 245 3 22 10 72 15 110 6 39 13
93 16 120 7 54 8 63 25 177 8 56 8 83 0 98 -12 22 -42 27 -58 8z"/>
<path d="M1994 1148 c-10 -16 -14 -912 -4 -928 10 -16 47 -20 59 -6 12 14 22
871 11 917 -7 27 -52 39 -66 17z"/>
</g>
</svg>
